<svg xmlns="http://www.w3.org/2000/svg" width="256" height="256" viewBox="0 0 48 48"><path d="M18.6 5.3 L23.1 3.1 L21.4 7.8 Z" fill="#b874e6" stroke="#1b1612" stroke-width="1.2" stroke-linejoin="round" /><path d="M23.0 9.5 L27.8 8.0 L25.4 12.4 Z" fill="#b874e6" stroke="#1b1612" stroke-width="1.2" stroke-linejoin="round" /><path d="M26.4 13.8 L31.3 13.3 L28.2 17.1 Z" fill="#b874e6" stroke="#1b1612" stroke-width="1.2" stroke-linejoin="round" /><path d="M28.6 18.3 L33.5 19.1 L29.5 22.0 Z" fill="#b874e6" stroke="#1b1612" stroke-width="1.2" stroke-linejoin="round" /><path d="M29.5 26.0 L33.5 28.9 L28.6 29.7 Z" fill="#b874e6" stroke="#1b1612" stroke-width="1.2" stroke-linejoin="round" /><path d="M28.2 30.9 L31.3 34.7 L26.4 34.2 Z" fill="#b874e6" stroke="#1b1612" stroke-width="1.2" stroke-linejoin="round" /><path d="M25.4 35.6 L27.8 40.0 L23.0 38.5 Z" fill="#b874e6" stroke="#1b1612" stroke-width="1.2" stroke-linejoin="round" /><path d="M21.4 40.2 L23.1 44.9 L18.6 42.7 Z" fill="#b874e6" stroke="#1b1612" stroke-width="1.2" stroke-linejoin="round" /><path d="M15 5 Q40 24 15 43" fill="none" stroke="#1b1612" stroke-width="7.8" stroke-linecap="round" stroke-linejoin="round"/><path d="M15 5 Q40 24 15 43" fill="none" stroke="#4f8a34" stroke-width="4.6" stroke-linecap="round" stroke-linejoin="round" /><path d="M17.5 8.5 Q35.5 24 17.5 39.5" fill="none" stroke="#8fd14f" stroke-width="1.2" stroke-linecap="round" stroke-linejoin="round" /><path d="M15 5 L15 43" stroke="#f6ead2" stroke-width="1.3"/><path d="M7 24 H39" fill="none" stroke="#1b1612" stroke-width="5.1" stroke-linecap="round" stroke-linejoin="round"/><path d="M7 24 H39" fill="none" stroke="#6f9e4a" stroke-width="1.9" stroke-linecap="round" stroke-linejoin="round" /><path d="M38 20.2 L46 24 L38 27.8 Z" fill="#dfe4ea" stroke="#1b1612" stroke-width="1.8" stroke-linejoin="round" /><path d="M9 24 L4.5 19.5 L11.5 21.5 Z" fill="#b874e6" stroke="#1b1612" stroke-width="1.5" stroke-linejoin="round" /><path d="M9 24 L4.5 28.5 L11.5 26.5 Z" fill="#b874e6" stroke="#1b1612" stroke-width="1.5" stroke-linejoin="round" /><path d="M27.5 24 q-2.6 -4 0 -6.6 q2.6 2.6 0 6.6 Z" fill="#c98af0" stroke="#1b1612" stroke-width="1.3" stroke-linejoin="round" transform="rotate(0 27.5 24)"/><path d="M27.5 24 q-2.6 -4 0 -6.6 q2.6 2.6 0 6.6 Z" fill="#c98af0" stroke="#1b1612" stroke-width="1.3" stroke-linejoin="round" transform="rotate(72 27.5 24)"/><path d="M27.5 24 q-2.6 -4 0 -6.6 q2.6 2.6 0 6.6 Z" fill="#c98af0" stroke="#1b1612" stroke-width="1.3" stroke-linejoin="round" transform="rotate(144 27.5 24)"/><path d="M27.5 24 q-2.6 -4 0 -6.6 q2.6 2.6 0 6.6 Z" fill="#c98af0" stroke="#1b1612" stroke-width="1.3" stroke-linejoin="round" transform="rotate(216 27.5 24)"/><path d="M27.5 24 q-2.6 -4 0 -6.6 q2.6 2.6 0 6.6 Z" fill="#c98af0" stroke="#1b1612" stroke-width="1.3" stroke-linejoin="round" transform="rotate(288 27.5 24)"/><path d="M25.6 24 a1.9 1.9 0 1 0 3.8 0 a1.9 1.9 0 1 0 -3.8 0 Z" fill="#ffe08a" stroke="#1b1612" stroke-width="1.2" stroke-linejoin="round" /></svg>