<svg xmlns="http://www.w3.org/2000/svg" width="256" height="256" viewBox="0 0 48 48"><ellipse cx="20.8" cy="2.9" rx="6.4" ry="2.7" fill="#d9442e" stroke="#1b1612" stroke-width="1.4" transform="rotate(-77.4 20.8 2.9)"/><ellipse cx="25.9" cy="7.8" rx="6.4" ry="2.7" fill="#ff7a2a" stroke="#1b1612" stroke-width="1.4" transform="rotate(-67.3 25.9 7.8)"/><ellipse cx="29.8" cy="13.1" rx="6.4" ry="2.7" fill="#d9442e" stroke="#1b1612" stroke-width="1.4" transform="rotate(-53.8 29.8 13.1)"/><ellipse cx="33.5" cy="24.0" rx="6.4" ry="2.7" fill="#ff7a2a" stroke="#1b1612" stroke-width="1.4" transform="rotate(0.0 33.5 24.0)"/><ellipse cx="29.8" cy="34.9" rx="6.4" ry="2.7" fill="#d9442e" stroke="#1b1612" stroke-width="1.4" transform="rotate(53.8 29.8 34.9)"/><ellipse cx="25.9" cy="40.2" rx="6.4" ry="2.7" fill="#ff7a2a" stroke="#1b1612" stroke-width="1.4" transform="rotate(67.3 25.9 40.2)"/><ellipse cx="20.8" cy="45.1" rx="6.4" ry="2.7" fill="#d9442e" stroke="#1b1612" stroke-width="1.4" transform="rotate(77.4 20.8 45.1)"/><path d="M15 5 Q40 24 15 43" fill="none" stroke="#1b1612" stroke-width="7.8" stroke-linecap="round" stroke-linejoin="round"/><path d="M15 5 Q40 24 15 43" fill="none" stroke="#ffb020" stroke-width="4.6" stroke-linecap="round" stroke-linejoin="round" /><path d="M17.5 8.5 Q35.5 24 17.5 39.5" fill="none" stroke="#ffe08a" stroke-width="1.2" stroke-linecap="round" stroke-linejoin="round" /><path d="M15 5 L15 43" stroke="#fff1c0" stroke-width="1.3"/><path d="M7 24 H39" fill="none" stroke="#1b1612" stroke-width="5.1" stroke-linecap="round" stroke-linejoin="round"/><path d="M7 24 H39" fill="none" stroke="#ffb020" stroke-width="1.9" stroke-linecap="round" stroke-linejoin="round" /><path d="M37 19.5 Q47 22 46.5 24 Q47 26 37 28.5 Q40 24 37 19.5 Z" fill="#ff7a2a" stroke="#1b1612" stroke-width="1.6" stroke-linejoin="round" /><path d="M39 22 Q44 23.4 44 24 Q44 24.6 39 26 Q40.5 24 39 22 Z" fill="#fff1c0"/><path d="M9 24 L4.5 19.5 L11.5 21.5 Z" fill="#d9442e" stroke="#1b1612" stroke-width="1.5" stroke-linejoin="round" /><path d="M9 24 L4.5 28.5 L11.5 26.5 Z" fill="#d9442e" stroke="#1b1612" stroke-width="1.5" stroke-linejoin="round" /><path d="M24.6 19 h5.8 v10 h-5.8 Z" fill="#ffb020" stroke="#1b1612" stroke-width="2" stroke-linejoin="round" /><path d="M27.5 21.6 l2 2.4 l-2 2.4 l-2 -2.4 Z" fill="#e5484d" stroke="#1b1612" stroke-width="1.2" stroke-linejoin="round" /><path d="M15 -0.5 q3.6 3.4 2.4 6 q-1 1.8 -2.4 1.8 q-1.4 0 -2.4 -1.8 q-1.2 -2.6 2.4 -6 Z" fill="#ffb020" stroke="#1b1612" stroke-width="1.3" stroke-linejoin="round" /><path d="M15 3 q1.4 1.6 0.8 2.6 q-0.4 0.6 -0.8 0.6 q-0.4 0 -0.8 -0.6 q-0.6 -1 0.8 -2.6 Z" fill="#fff1c0"/><path d="M15 37.5 q3.6 3.4 2.4 6 q-1 1.8 -2.4 1.8 q-1.4 0 -2.4 -1.8 q-1.2 -2.6 2.4 -6 Z" fill="#ffb020" stroke="#1b1612" stroke-width="1.3" stroke-linejoin="round" /><path d="M15 41 q1.4 1.6 0.8 2.6 q-0.4 0.6 -0.8 0.6 q-0.4 0 -0.8 -0.6 q-0.6 -1 0.8 -2.6 Z" fill="#fff1c0"/></svg>