<svg xmlns="http://www.w3.org/2000/svg" width="256" height="256" viewBox="0 0 48 48"><path d="M28 5.5 Q37 24 28 42.5" fill="none" stroke="#1b1612" stroke-width="6.8" stroke-linecap="round" stroke-linejoin="round"/><path d="M28 5.5 Q37 24 28 42.5" fill="none" stroke="#a7b0ba" stroke-width="3.6" stroke-linecap="round" stroke-linejoin="round" /><path d="M29.6 8.6 Q35 24 29.6 39.4" fill="none" stroke="#eef2f6" stroke-width="1" stroke-linecap="round" stroke-linejoin="round" /><path d="M28 5.5 L17 24 L28 42.5" fill="none" stroke="#f6ead2" stroke-width="1.3"/><path d="M2.5 19.6 L11.5 19.6 L13.5 21.6 L36 21.6 L36 26.4 L13.5 26.4 L11.5 29.6 L2.5 29.6 Q1.2 24.6 2.5 19.6 Z" fill="#7a5230" stroke="#1b1612" stroke-width="2.3" stroke-linejoin="round" /><path d="M4.6 21.6 H11 M15 23 H35" stroke="#a87a4c" stroke-width="1.1"/><path d="M17 26.4 q.5 4.6 4 5.4 l.4 -1.6 q-2.2 -.6 -2.4 -3.8 Z" fill="#3e2a18" stroke="#1b1612" stroke-width="1.5" stroke-linejoin="round" /><path d="M36.5 21.4 Q41.5 21 41.5 24 Q41.5 27 36.5 26.6" fill="none" stroke="#1b1612" stroke-width="4.7" stroke-linecap="round" stroke-linejoin="round"/><path d="M36.5 21.4 Q41.5 21 41.5 24 Q41.5 27 36.5 26.6" fill="none" stroke="#a7b0ba" stroke-width="1.5" stroke-linecap="round" stroke-linejoin="round" /><path d="M15 24 H40" fill="none" stroke="#1b1612" stroke-width="4.9" stroke-linecap="round" stroke-linejoin="round"/><path d="M15 24 H40" fill="none" stroke="#8a6a4a" stroke-width="1.7" stroke-linecap="round" stroke-linejoin="round" /><path d="M39.4 20.4 L46.4 24 L39.4 27.6 Z" fill="#dfe4ea" stroke="#1b1612" stroke-width="1.7" stroke-linejoin="round" /><path d="M20 18.4 h4 l-1 3.2 h-2 Z" fill="#5d6872" stroke="#1b1612" stroke-width="1.2" stroke-linejoin="round" /><path d="M5.4 24.6 a3.2 3.2 0 1 0 6.4 0 a3.2 3.2 0 1 0 -6.4 0 Z" fill="#4d97ff" stroke="#1b1612" stroke-width="1.7" stroke-linejoin="round" /><circle cx="7.7" cy="23.5" r="1" fill="#fff"/></svg>