<svg xmlns="http://www.w3.org/2000/svg" width="256" height="256" viewBox="0 0 48 48"><path d="M14 12 Q24 8 34 12 L35 29 Q32 38 24 42 Q16 38 13 29 Z" fill="#5f9e3c" stroke="#1b1612" stroke-width="2.5" stroke-linejoin="round" /><path d="M24 10.5 L24 41" stroke="#3f7a2a" stroke-width="1.8"/><path d="M28 11.5 Q33 13 33.2 28.5 Q31 36 26 40 Z" fill="#3f7a2a" opacity=".8"/><path d="M5 15 Q6 9 13 9.5 Q17.5 10.5 17 16 Q11 19.5 5 15 Z" fill="#3f7a2a" stroke="#1b1612" stroke-width="2.2" stroke-linejoin="round" /><path d="M43 15 Q42 9 35 9.5 Q30.5 10.5 31 16 Q37 19.5 43 15 Z" fill="#3f7a2a" stroke="#1b1612" stroke-width="2.2" stroke-linejoin="round" /><path d="M5.5 12.5 q1.5 -3 3.4 -2 q1.4 -2.4 3.6 -0.9 q2 -1.4 3.6 0.6 q-1 2.6 -5.2 2.8 q-3.6 0.4 -5.4 -0.5 Z" fill="#8fd14f" stroke="#1b1612" stroke-width="1.3" stroke-linejoin="round" /><path d="M42.5 12.5 q-1.5 -3 -3.4 -2 q-1.4 -2.4 -3.6 -0.9 q-2 -1.4 -3.6 0.6 q1 2.6 5.2 2.8 q3.6 0.4 5.4 -0.5 Z" fill="#8fd14f" stroke="#1b1612" stroke-width="1.3" stroke-linejoin="round" /><path d="M24 17 Q30.5 22.5 24 32 Q17.5 22.5 24 17 Z" fill="#8fd14f" stroke="#1b1612" stroke-width="1.8" stroke-linejoin="round" /><path d="M24 19.5 V30 M24 23 l2.4 -1.6 M24 26 l-2.4 -1.6" stroke="#3f7a2a" stroke-width="1.1" fill="none"/><path d="M36.5 9.8 q0 -4.2 3.6 -4.2 q3.6 0 3.6 4.2 Z" fill="#e5484d" stroke="#1b1612" stroke-width="1.4" stroke-linejoin="round" /><rect x="39.3" y="9.8" width="1.6" height="2.4" fill="#f6ead2" stroke="#1b1612" stroke-width=".9"/><circle cx="38.8" cy="7.6" r=".8" fill="#fff"/><circle cx="41.4" cy="7" r=".7" fill="#fff"/><path d="M16 15 Q15.6 22 16.8 28" fill="none" stroke="#a6dc6a" stroke-width="1.3" stroke-linecap="round" opacity=".8"/></svg>